<?xml version="1.0" encoding="UTF-8"?>
<svg id="Layer_1" xmlns="http://www.w3.org/2000/svg" version="1.1" viewBox="0 0 379 257">
  <!-- Generator: Adobe Illustrator 29.1.0, SVG Export Plug-In . SVG Version: 2.1.0 Build 142)  -->
  <defs>
    <style>
      .st0 {
        fill: #eeeae8;
      }
    </style>
  </defs>
  <path class="st0" d="M276.7,125.2c3.8-1.2,8.5-2.8,14.3-4.9,5-1.8,6.4,4,1.7,5.4-1.1.3-1.7.5-1.8.5-3.4,1.3-18,6.1-44,14.4-4.8,1.5-8.8,2.5-13.6,1.7-4.2-.6-7.7-1.6-10.5-3-8.6-4.1-16.5-7.5-23.6-10.1-3.2-1.2-6.4-1.8-9.9-2.9-.4,0-.7-.2-1.1-.2-6.8-.6-13.4-1.3-18.1,2.4-13.5,10.6-21.2,16.6-29.2,24.3-.4.4-.5,1-.2,1.5,4.2,6.8,9.9,6.1,16.5,2.4,3.7-2.1,6.5-3.8,8.6-5.3,4.1-2.8,6.6-4.5,7.6-5,.3-.2.7-.3,1.1-.4,3.9-1.1,7.8-.5,11.8,1.6,10.5,5.7,21.5,12.5,33,20.5,8.4,5.9,19.5,13.4,27.8,19.3.3.2.6.2.9,0,3.8-3,7.9-5.5,12.4-7.5,10-4.5,20-8.5,29.9-12,1.3-.5,2.8.2,3.2,1.6h0c.4,1.5-.3,2.9-1.6,3.4-9.1,3.3-17.3,6.5-24.7,9.6-5.3,2.3-9.8,4.6-13.5,7-1.9,1.2-3.1,2.4-2.9,5,.3,4.3-1.7,7.9-5.9,10.8-1.8,1.2-5.2,1.8-7,2.2-.4,0-.7.4-.8.7-2.3,7.8-7.6,11-16,9.7-.3,0-.7.1-.8.5-2.4,5.1-6.7,7.5-12.1,8.7-1.5.4-3.5,0-5.9-1-.6-.2-1.2-.1-1.7.3-7.2,7.3-14.9,8.3-23,3.1-.8-.5-1.8-.5-2.5.1-4.3,3.5-11.2,2.5-14.7-1.5-1.3-1.5-2.3-3-2.9-4.5,0-.4-.6-.5-.9-.2-3.8,3.3-8.4,1.6-12.2-1-2.8-1.9-4.5-4.8-5.1-8.5,0-.3-.3-.5-.6-.5-2.2.1-3.6.2-4.1,0-4.8-1.2-8.1-4.3-10.1-9.3v-.2l-.4-3.2c0-.4-.4-.8-.8-.8h-2.9c-5.2-2.2-7.7-6.3-7.7-12.2s-.2-.8-.5-.9c-9.3-5.2-19.4-9.2-30.9-13.8-1.4-.6-2.2-2.1-1.8-3.5v-.2c.4-1.4,1.9-2.1,3.2-1.5,10.9,4.3,20.7,8.5,29.4,12.8,1.1.5,1.9.6,2.7,1.6.2.3.7.3.9,0,2.6-3.7,8.2-9.3,13.3-8,4.2,1.1,7.8,5.2,8.6,9.4,0,.3.4.5.7.3,7.8-3.6,15.7.5,17.1,9,0,.4.4.6.8.5l2.9-.6h.4c6.6,1.1,10.5,4.7,11.6,10.9,0,.3.4.6.7.5,3.1-.3,5-.2,5.8.3,8.9,5.7,17.7,11.2,26.4,16.5,4.3,2.6,9.8-.9,12-4.8.3-.5.1-1.2-.4-1.5l-29.8-20.2c-1.1-.8-1.3-2.3-.4-3.3h0c.9-1.2,2.5-1.4,3.7-.6,7.3,4.8,16.8,11.3,28.6,19.4,4.7,3.2,9,4.6,13.2.5.3-.3.6-.7.7-1.2.3-1.2.4-2.4.1-3.4-.1-.5-.4-1-.9-1.3l-36.4-25.5c-1.1-.8-1.3-2.4-.3-3.3l.6-.6c.8-.8,2-.9,2.9-.2l37.5,26.2c.6.4,1.2.6,1.9.7,3.4.4,6-.8,7.9-3.6.9-1.3,1.1-3,.6-5.1,0-.3-.3-.6-.6-.8-20.3-14.2-33.2-23.1-38.7-26.7-8.1-5.3-15.6-9.8-22.6-13.6-2.2-1.2-4.9-1.4-8.3-.6-.3,0-.7.2-1,.5-5.3,4-10.9,7.5-16.7,10.6-4.5,2.3-8.7,3.2-13.4,1.2-4.5-1.9-7.5-5-8.9-9.4-.4-1.4,0-2.9.9-3.9l7.1-7.1c.2-.2,0-.6-.3-.6l-4.6.6h-.3c-4.3-.6-7.6-1.2-9.7-1.8-4.1-1.1-10-3-17.7-5.7-4-1.4-10.5-3.7-19.5-6.9-3-1-6.6-2.2-10.8-3.6-2.2-.7-3.1-2.1-2.6-4,0-.3.3-.6.5-.8,1-.8,2.2-1,3.5-.6,4.6,1.5,8.6,2.9,12,4.3.4.2.9,0,.9-.6v-25c0-.4.3-.7.6-.8l27.6-6.2c.3,0,.5-.3.5-.6v-17.4c0-.3-.2-.6-.5-.7-4.9-2-9.5-3.8-13.8-5.5-3.4-1.3-2.8-2.5-2.7-5.2,0-.4.6-1.1,1.9-1.9,14.7-10.2,35.2-23.9,61.1-41.1.5-.3,1.1-.4,1.6-.2l86.3,34.1c1.4.5,2.1,2.1,1.5,3.5v.3c-.6,1.4-2.1,2-3.5,1.5l-83.6-32.4c-1.1-.4-2.4-.3-3.4.4l-54,35.9c-.5.3-.4,1.1.2,1.4l9.3,3.7c.5.2,1,0,1.4,0l47.5-30.3c.9-.6,2.1-.7,3.1-.3l64.4,24.3c.4.2.7.6.7,1v16.8c0,.4.3.7.6.7l53,9.8c.5,0,.9.6.8,1.1l-.4,3.2c0,.6-.4,1.1-.9,1.4l-17.5,10.1c-.2,0-.3.3-.3.6v18.8c0,.4.4.6.7.5h-.2ZM205.9,67.5c.1,0,.2.2.2.3v10.7c0,.4.3.6.7.6,1.2-.2,3.4-.7,6.6-1.3,6.3-1.3,13.5,0,21.1,1.4.4,0,.8-.2.8-.6v-12.4c0-.5-.3-1-.8-1.2l-56.8-21.4c-.4,0-.8,0-.8.5v39.5c0,.2.2.4.4.3,4.2-.6,7.1-.7,10.9-1.7,3.2-.8,7.7-.6,11.2-2.2.2,0,.3-.3.3-.5v-13.9c0-.2.2-.3.3-.2l5.8,2.2h.1ZM140.7,133.2c-.4,0-.7-.2-.7-.6v-21.3c0-.2-.2-.4-.4-.4l-20,2.4c-.3,0-.5.3-.5.6v18.9c0,.2.2.5.4.5,4,1.3,8,2.5,11.9,3.5,3.6,1,7.5,1.3,10.6.6,3.8-.9,6.9-1.3,9.4-1.4.3,0,.6,0,.8-.3l18.6-14.4c.2,0,.2-.3.2-.5V44.9c0-.2-.3-.4-.5-.3l-42.3,27c-.2.2-.4.4-.4.7l.9,22.1c0,.7-.5,1.4-1.2,1.5l-27.2,6.1c-.3,0-.5.4-.5.7v22.5c0,.3.2.6.5.8,1.7,1,3.7,1.8,5.9,2.3.4,0,.7.2,1,.4,1.6.8,3.6,1.5,6,1.9.3,0,.6-.2.6-.4v-20.9c0-.4.3-.8.7-.8l29.8-3.6c.5,0,.9.3.9.8v25.6c0,.5-.3.9-.8,1l-3.9.9h.2ZM218.6,130.7v-37.4c0-.5.4-.9.9-.8,3.9.5,7.5.6,10.5,1.2,5.5,1.1,10.8,1.1,16.1,2.2,4.9,1,9.5,1.1,13.6,2,2.4.6,4.8,1,7.3,1.2,1.9.2,4.6,1.4,6.4,1.3h.4l10.8-6.2c.4-.2.3-.8-.2-.8l-35.9-6.3h0c-5.1-.2-9.5-2.1-15-2.2-.4,0-2.2-.4-5.5-1.1-5.3-1.2-10.4-1.2-15.5-.2-4.9,1-8.1,1.5-9.8,1.7-3,.3-6,1.5-8.7,1.6-1.7,0-3.9.4-6.5,1-3,.7-6.4,1.2-10.2,1.5-.5,0-.9.5-.9,1v29.6c0,.2.2.5.5.5,4.7,0,9.1,0,13.9.9,9.8,2.2,20,6.7,26.9,9.9.4.2.8,0,.8-.5h.1ZM255.6,102.7l-30.9-4.2c-.4,0-.8.3-.8.7v34c0,.4.2.7.5.8,3.1,1.6,6.6,2.8,10.6,3.4,1.5.2,3,0,4.7-.3,5.8-1.6,11-3.2,15.7-4.9.3,0,.5-.4.5-.8v-28.3c0-.2-.2-.4-.4-.4h0ZM261.5,104.1c-.3,12-.9,20,0,25.2,0,.5.5.7,1,.6l7.4-2.3c.4,0,.6-.4.6-.8v-21.3c0-.2-.2-.4-.4-.4l-8.4-1.2c-.2,0-.3,0-.3.3h0ZM127.6,179.2c-.6-.2-1.2-.2-1.8.2-2.2,1.6-4.2,3.4-5.9,5.3-3.1,3.4-3,6.6.3,9.6.3.3.7.5,1.2.5h3.2c.5,0,1-.2,1.3-.5l5.6-5.6c0-.1.2-.3.3-.5,1.1-4.3-.4-7.3-4.2-9ZM148.2,198.2c2.2-2.3,2.2-6-.2-8.3l-.6-.6c-2.3-2.2-6-2.2-8.3.2l-8.1,8.4c-2.2,2.3-2.2,6,.2,8.3l.6.6c2.3,2.2,6,2.2,8.3-.2l8.1-8.4ZM164.2,208.9c2.2-2.4,2-6.2-.4-8.4l-.9-.8c-2.4-2.2-6.2-2-8.4.4l-8.5,9.3c-2.2,2.4-2,6.2.4,8.4l.9.8c2.4,2.2,6.2,2,8.4-.4l8.5-9.3h0ZM178.3,219.4c2.1-2.2,2.1-5.6,0-7.7l-.5-.5c-2.2-2.1-5.6-2.1-7.7,0l-5.8,5.9c-2.1,2.2-2.1,5.6,0,7.7l.5.5c2.2,2.1,5.6,2.1,7.7,0l5.8-5.9ZM180.8,225.5c5.4,3.4,10.5,2.8,15.1-1.7.4-.4.3-.9-.1-1.2l-10.3-6.4c-.3-.2-.6,0-.6.3l-.6,3.1c0,.4-.2.7-.4,1l-3.1,4.1c-.2.3,0,.7.2.8h-.2,0Z"/>
  <path class="st0" d="M158.1,91.5l-5.6,1.3c-.5,0-1.1-.3-1.1-.8v-20.9c0-.3.2-.6.4-.8l5.6-3.2c.6-.3,1.3,0,1.3.8v22.9c0,.4-.3.8-.7.8h0Z"/>
  <path class="st0" d="M145.2,73.1c.4-.2.8,0,.8.5v19c0,.9-.8,1.7-1.7,1.8l-4.2.2c-.7,0-1.2-.5-1.2-1.2v-15.7c0-.6.3-1.1.8-1.4l5.5-3.2h0Z"/>
</svg>