<?xml version="1.0" encoding="UTF-8" standalone="no"?>
<!DOCTYPE svg PUBLIC "-//W3C//DTD SVG 1.1//EN" "http://www.w3.org/Graphics/SVG/1.1/DTD/svg11.dtd">
<svg xmlns="http://www.w3.org/2000/svg" version="1.1" viewBox="0.00 0.00 500.00 500.00">
<path fill="#eeeae8" d="
  M 341.18 211.04
  C 344.94 209.85 349.70 208.22 355.46 206.13
  C 360.41 204.33 361.87 210.15 357.13 211.51
  C 356.00 211.83 355.42 212.00 355.38 212.02
  C 352.01 213.35 337.36 218.15 311.41 226.44
  C 306.65 227.96 302.58 228.92 297.81 228.18
  C 293.64 227.53 290.14 226.53 287.31 225.18
  C 278.69 221.07 270.83 217.69 263.72 215.04
  C 260.48 213.83 257.35 213.22 253.87 212.12
  C 253.50 212.00 253.13 211.92 252.74 211.89
  C 245.97 211.33 239.38 210.56 234.61 214.31
  C 221.10 224.94 213.38 230.86 205.40 238.63
  C 204.98 239.04 204.91 239.68 205.21 240.18
  C 209.38 246.96 215.14 246.27 221.68 242.56
  C 225.35 240.48 228.22 238.72 230.29 237.28
  C 234.34 234.47 236.86 232.80 237.87 232.29
  C 238.21 232.12 238.56 231.99 238.93 231.88
  C 242.79 230.81 246.72 231.35 250.73 233.51
  C 261.22 239.16 272.21 246.01 283.70 254.05
  C 292.15 259.96 303.16 267.43 311.53 273.33
  C 311.79 273.51 312.13 273.50 312.38 273.30
  C 316.14 270.33 320.28 267.82 324.80 265.78
  C 334.82 261.26 344.77 257.27 354.65 253.81
  C 355.98 253.34 357.43 254.06 357.87 255.40
  L 357.92 255.54
  C 358.37 256.89 357.66 258.34 356.32 258.82
  C 347.21 262.09 338.99 265.28 331.66 268.41
  C 326.35 270.67 321.85 272.99 318.14 275.37
  C 316.27 276.57 315.07 277.74 315.23 280.33
  C 315.49 284.63 313.53 288.22 309.36 291.10
  C 307.55 292.35 304.13 292.94 302.35 293.34
  C 301.98 293.43 301.69 293.70 301.58 294.06
  C 299.29 301.85 293.97 305.08 285.61 303.74
  C 285.26 303.69 284.92 303.87 284.77 304.19
  C 282.38 309.26 278.03 311.71 272.68 312.91
  C 271.15 313.26 269.19 312.94 266.80 311.95
  C 266.22 311.71 265.56 311.85 265.12 312.29
  C 257.87 319.56 250.20 320.60 242.13 315.42
  C 241.35 314.91 240.33 314.97 239.61 315.55
  C 235.27 319.02 228.45 318.09 224.88 314.07
  C 223.55 312.57 222.58 311.07 221.97 309.56
  C 221.82 309.20 221.36 309.08 221.07 309.34
  C 217.26 312.62 212.71 310.96 208.91 308.33
  C 206.10 306.38 204.41 303.55 203.82 299.84
  C 203.77 299.54 203.50 299.32 203.19 299.34
  C 201.02 299.49 199.64 299.50 199.06 299.35
  C 194.27 298.12 190.91 295.02 188.99 290.05
  C 188.96 289.97 188.93 289.89 188.92 289.80
  L 188.54 286.62
  C 188.49 286.19 188.12 285.87 187.69 285.87
  L 185.19 285.87
  C 185.04 285.87 184.89 285.84 184.76 285.78
  C 179.60 283.53 177.04 279.48 177.07 273.62
  C 177.08 273.23 176.87 272.87 176.54 272.69
  C 167.23 267.47 157.15 263.47 145.63 258.94
  C 144.23 258.38 143.45 256.88 143.81 255.41
  L 143.86 255.20
  C 144.20 253.82 145.72 253.09 147.01 253.69
  C 157.90 257.96 167.69 262.23 176.39 266.51
  C 177.46 267.04 178.32 267.15 179.10 268.14
  C 179.33 268.43 179.78 268.41 179.99 268.11
  C 182.56 264.40 188.20 258.77 193.27 260.13
  C 197.50 261.27 201.08 265.36 201.85 269.58
  C 201.91 269.88 202.23 270.05 202.51 269.92
  C 210.33 266.34 218.21 270.41 219.65 278.92
  C 219.72 279.28 220.07 279.52 220.43 279.44
  L 223.33 278.79
  C 223.46 278.76 223.58 278.75 223.71 278.77
  C 230.32 279.87 234.19 283.49 235.33 289.62
  C 235.39 289.95 235.69 290.18 236.03 290.15
  C 239.13 289.88 241.06 289.98 241.82 290.47
  C 250.73 296.21 259.51 301.72 268.17 307.00
  C 272.51 309.65 277.98 306.06 280.17 302.24
  C 280.47 301.71 280.32 301.05 279.82 300.71
  L 250.07 280.50
  C 248.96 279.74 248.75 278.18 249.63 277.16
  L 249.72 277.05
  C 250.65 275.95 252.26 275.72 253.46 276.51
  C 260.77 281.35 270.29 287.83 282.01 295.96
  C 286.70 299.20 291.05 300.57 295.22 296.43
  C 295.55 296.11 295.78 295.71 295.89 295.27
  C 296.22 294.06 296.26 292.91 296.01 291.84
  C 295.89 291.32 295.58 290.86 295.14 290.56
  L 258.72 265.11
  C 257.60 264.33 257.46 262.72 258.42 261.76
  L 259.06 261.12
  C 259.82 260.36 261.03 260.25 261.91 260.87
  L 299.39 287.06
  C 299.95 287.45 300.61 287.70 301.29 287.78
  C 304.64 288.19 307.28 286.98 309.20 284.16
  C 310.09 282.87 310.27 281.17 309.76 279.07
  C 309.68 278.74 309.48 278.45 309.20 278.26
  C 288.88 264.05 275.97 255.14 270.46 251.55
  C 262.39 246.29 254.86 241.75 247.86 237.93
  C 245.68 236.74 242.91 236.53 239.56 237.31
  C 239.21 237.40 238.88 237.55 238.60 237.77
  C 233.31 241.80 227.73 245.31 221.86 248.32
  C 217.34 250.63 213.17 251.51 208.51 249.56
  C 203.96 247.65 200.99 244.52 199.60 240.18
  C 199.16 238.79 199.52 237.27 200.55 236.24
  L 207.60 229.19
  C 207.83 228.96 207.64 228.56 207.31 228.60
  L 202.70 229.16
  C 202.59 229.17 202.47 229.17 202.35 229.15
  C 198.04 228.52 194.80 227.93 192.63 227.36
  C 188.55 226.29 182.64 224.39 174.90 221.65
  C 170.91 220.24 164.42 217.96 155.41 214.79
  C 152.43 213.74 148.82 212.55 144.58 211.21
  C 142.37 210.51 141.51 209.16 142.00 207.17
  C 142.08 206.85 142.26 206.57 142.52 206.37
  C 143.56 205.57 144.71 205.37 145.98 205.77
  C 150.59 207.24 154.59 208.67 157.98 210.08
  C 158.42 210.26 158.90 209.94 158.90 209.47
  L 158.90 184.47
  C 158.90 184.09 159.16 183.77 159.52 183.68
  L 187.07 177.47
  C 187.36 177.41 187.56 177.15 187.56 176.86
  L 187.56 159.43
  C 187.56 159.12 187.37 158.83 187.08 158.71
  C 182.16 156.71 177.57 154.88 173.31 153.22
  C 169.93 151.90 170.54 150.72 170.62 148.03
  C 170.63 147.58 171.26 146.93 172.51 146.09
  C 187.50 136.02 207.96 122.38 233.89 105.16
  C 234.37 104.85 234.96 104.78 235.49 104.99
  L 321.84 139.05
  C 323.22 139.59 323.90 141.14 323.38 142.53
  L 323.25 142.87
  C 322.74 144.22 321.23 144.90 319.88 144.38
  L 236.25 111.99
  C 235.12 111.56 233.85 111.70 232.84 112.37
  L 178.81 148.30
  C 178.28 148.65 178.37 149.45 178.96 149.68
  L 188.29 153.37
  C 188.75 153.55 189.26 153.49 189.68 153.23
  L 237.14 122.95
  C 238.05 122.36 239.19 122.25 240.21 122.63
  L 304.62 146.97
  C 305.04 147.13 305.32 147.53 305.32 147.98
  L 305.32 164.77
  C 305.32 165.13 305.58 165.44 305.93 165.51
  L 358.92 175.31
  C 359.43 175.41 359.78 175.88 359.71 176.40
  L 359.26 179.65
  C 359.18 180.22 358.84 180.73 358.34 181.01
  L 340.79 191.15
  C 340.59 191.27 340.46 191.48 340.46 191.72
  L 340.46 210.51
  C 340.46 210.88 340.82 211.15 341.18 211.04
  Z
  M 270.44 153.35
  C 270.58 153.40 270.67 153.53 270.67 153.68
  L 270.67 164.37
  C 270.67 164.74 271.00 165.01 271.37 164.95
  C 272.60 164.74 274.81 164.29 278.02 163.61
  C 284.28 162.28 291.54 163.65 299.08 165.03
  C 299.48 165.10 299.84 164.80 299.84 164.40
  L 299.84 151.96
  C 299.84 151.44 299.52 150.98 299.04 150.80
  L 242.29 129.36
  C 241.91 129.22 241.50 129.49 241.50 129.90
  L 241.50 169.35
  C 241.50 169.57 241.69 169.73 241.91 169.70
  C 246.07 169.10 248.96 168.97 252.84 168.03
  C 256.03 167.26 260.52 167.43 264.03 165.84
  C 264.24 165.74 264.37 165.54 264.37 165.31
  L 264.37 151.38
  C 264.37 151.22 264.53 151.11 264.68 151.17
  L 270.44 153.35
  Z
  M 205.18 219.02
  C 204.80 219.10 204.45 218.82 204.45 218.43
  L 204.45 197.10
  C 204.45 196.89 204.26 196.72 204.05 196.74
  L 184.09 199.17
  C 183.79 199.20 183.56 199.46 183.56 199.77
  L 183.56 218.65
  C 183.56 218.89 183.71 219.10 183.94 219.17
  C 187.96 220.46 191.94 221.63 195.89 222.67
  C 199.49 223.63 203.41 223.95 206.54 223.24
  C 210.29 222.39 213.42 221.93 215.92 221.85
  C 216.22 221.84 216.51 221.74 216.74 221.56
  L 235.39 207.11
  C 235.55 206.99 235.64 206.80 235.64 206.60
  L 235.64 130.79
  C 235.64 130.54 235.36 130.39 235.15 130.52
  L 192.85 157.51
  C 192.62 157.66 192.48 157.92 192.49 158.20
  L 193.39 180.31
  C 193.42 181.04 192.92 181.69 192.21 181.85
  L 165.04 187.97
  C 164.72 188.04 164.50 188.32 164.50 188.65
  L 164.50 211.14
  C 164.50 211.47 164.67 211.78 164.96 211.95
  C 166.66 212.99 168.62 213.75 170.85 214.24
  C 171.21 214.32 171.55 214.44 171.87 214.61
  C 173.45 215.42 175.45 216.07 177.86 216.55
  C 178.14 216.61 178.41 216.39 178.41 216.10
  L 178.41 195.19
  C 178.41 194.78 178.71 194.43 179.12 194.38
  L 208.90 190.77
  C 209.39 190.71 209.83 191.10 209.83 191.59
  L 209.83 217.16
  C 209.83 217.63 209.50 218.04 209.04 218.15
  L 205.18 219.02
  Z
  M 283.13 216.53
  L 283.13 179.13
  C 283.13 178.62 283.58 178.23 284.08 178.30
  C 287.93 178.84 291.57 178.89 294.60 179.50
  C 300.11 180.61 305.40 180.63 310.75 181.70
  C 315.61 182.66 320.20 182.75 324.39 183.70
  C 326.82 184.25 329.24 184.66 331.67 184.94
  C 333.60 185.17 336.29 186.38 338.03 186.27
  C 338.18 186.26 338.33 186.22 338.47 186.14
  L 349.23 179.93
  C 349.60 179.72 349.50 179.16 349.08 179.09
  L 313.21 172.77
  C 313.20 172.77 313.18 172.77 313.17 172.77
  C 308.08 172.61 303.69 170.68 298.18 170.56
  C 297.77 170.55 295.94 170.19 292.71 169.48
  C 287.42 168.31 282.26 168.24 277.23 169.26
  C 272.38 170.24 269.12 170.80 267.44 170.94
  C 264.43 171.20 261.43 172.43 258.76 172.56
  C 257.06 172.64 254.89 172.98 252.24 173.58
  C 249.25 174.25 245.83 174.76 241.99 175.09
  C 241.48 175.14 241.08 175.57 241.08 176.08
  L 241.08 205.70
  C 241.08 205.95 241.28 206.16 241.54 206.17
  C 246.22 206.30 250.60 206.03 255.44 207.11
  C 265.19 209.30 275.39 213.84 282.33 217.04
  C 282.70 217.21 283.13 216.94 283.13 216.53
  Z
  M 320.07 188.55
  L 289.20 184.33
  C 288.78 184.27 288.40 184.60 288.40 185.03
  L 288.40 218.99
  C 288.40 219.35 288.60 219.67 288.92 219.84
  C 292.01 221.47 295.54 222.62 299.51 223.29
  C 300.97 223.54 302.55 223.43 304.25 222.98
  C 310.08 221.42 315.30 219.77 319.92 218.04
  C 320.25 217.92 320.47 217.61 320.47 217.26
  L 320.47 189.00
  C 320.47 188.78 320.30 188.58 320.07 188.55
  Z
  M 326.03 189.93
  C 325.71 201.90 325.15 209.88 326.11 215.15
  C 326.20 215.60 326.65 215.88 327.09 215.74
  L 334.49 213.42
  C 334.85 213.31 335.09 212.98 335.09 212.60
  L 335.09 191.27
  C 335.09 191.04 334.92 190.85 334.70 190.82
  L 326.33 189.67
  C 326.17 189.65 326.04 189.77 326.03 189.93
  Z
  M 192.15 265.04
  C 191.57 264.80 190.90 264.88 190.39 265.26
  C 188.19 266.89 186.23 268.66 184.50 270.56
  C 181.42 273.93 181.53 277.13 184.84 280.16
  C 185.16 280.46 185.58 280.62 186.01 280.62
  L 189.22 280.62
  C 189.71 280.62 190.19 280.42 190.54 280.07
  L 196.11 274.51
  C 196.25 274.37 196.34 274.19 196.39 274.00
  C 197.45 269.66 196.04 266.67 192.15 265.04
  Z
  M 212.7331 284.0301
  C 214.98 281.70 214.91 277.99 212.5740 275.7444
  L 211.9255 275.1203
  C 209.59 272.88 205.88 272.95 203.6397 275.2794
  L 195.5269 283.7099
  C 193.28 286.04 193.35 289.75 195.6860 291.9956
  L 196.3345 292.6197
  C 198.67 294.86 202.38 294.79 204.6203 292.4606
  L 212.7331 284.0301
  Z
  M 228.6585 294.7465
  C 230.87 292.34 230.70 288.59 228.2933 286.3823
  L 227.4381 285.5986
  C 225.03 283.39 221.28 283.55 219.0739 285.9638
  L 210.5615 295.2535
  C 208.35 297.66 208.52 301.41 210.9267 303.6177
  L 211.7819 304.4014
  C 214.19 306.61 217.94 306.45 220.1461 304.0362
  L 228.6585 294.7465
  Z
  M 242.8454 305.2497
  C 244.96 303.08 244.92 299.61 242.7507 297.5004
  L 242.2068 296.9696
  C 240.04 294.86 236.57 294.90 234.4575 297.0643
  L 228.6746 302.9903
  C 226.56 305.16 226.60 308.63 228.7693 310.7396
  L 229.3132 311.2704
  C 231.48 313.38 234.95 313.34 237.0625 311.1757
  L 242.8454 305.2497
  Z
  M 245.34 311.36
  C 250.77 314.73 255.80 314.15 260.41 309.63
  C 260.76 309.28 260.70 308.70 260.28 308.44
  L 249.98 302.00
  C 249.72 301.84 249.39 301.99 249.33 302.28
  L 248.76 305.39
  C 248.69 305.76 248.53 306.11 248.31 306.41
  L 245.18 310.51
  C 244.97 310.78 245.05 311.18 245.34 311.36
  Z"
/>
<path fill="#eeeae8" d="
  M 222.64 177.35
  L 217.00 178.62
  C 216.46 178.74 215.95 178.34 215.95 177.78
  L 215.95 156.89
  C 215.95 156.58 216.11 156.30 216.38 156.14
  L 222.02 152.89
  C 222.59 152.56 223.31 152.98 223.31 153.64
  L 223.31 176.51
  C 223.31 176.91 223.03 177.26 222.64 177.35
  Z"
/>
<path fill="#eeeae8" d="
  M 209.66 159.00
  C 210.03 158.79 210.48 159.05 210.48 159.47
  L 210.48 178.48
  C 210.48 179.42 209.73 180.20 208.79 180.24
  L 204.58 180.41
  C 203.92 180.44 203.37 179.91 203.37 179.25
  L 203.37 163.53
  C 203.37 162.97 203.66 162.46 204.14 162.18
  L 209.66 159.00
  Z"
/>
<path fill="#eeeae8" d="
  M 176.4349 339.4972
  C 184.25 338.45 191.45 344.03 192.5046 351.9614
  C 193.56 359.89 188.08 367.16 180.2651 368.2028
  C 172.45 369.25 165.25 363.67 164.1954 355.7386
  C 163.14 347.81 168.62 340.54 176.4349 339.4972
  Z
  M 186.9535 352.4220
  C 187.09 348.06 183.66 344.40 179.2959 344.2674
  L 177.8566 344.2222
  C 173.49 344.08 169.84 347.51 169.7021 351.8798
  L 169.5865 355.5580
  C 169.45 359.92 172.88 363.58 177.2441 363.7126
  L 178.6834 363.7578
  C 183.05 363.90 186.70 360.47 186.8379 356.1002
  L 186.9535 352.4220
  Z"
/>
<path fill="#eeeae8" d="
  M 155.90 347.89
  L 153.71 345.65
  C 153.35 345.28 152.94 344.96 152.50 344.69
  C 152.28 344.56 150.94 344.41 148.48 344.26
  C 144.69 344.03 142.14 345.51 140.83 348.70
  C 139.16 352.75 139.45 356.72 141.70 360.60
  C 142.11 361.29 142.72 361.88 143.53 362.36
  C 148.12 365.03 152.17 364.31 155.68 360.20
  C 156.00 359.82 156.58 359.80 156.93 360.15
  L 158.64 361.86
  C 159.04 362.26 159.07 362.89 158.71 363.32
  C 156.86 365.57 154.94 366.95 152.96 367.47
  C 145.98 369.30 140.44 367.34 136.34 361.58
  C 136.16 361.32 136.02 361.04 135.92 360.74
  C 135.92 360.73 135.52 359.49 134.72 357.02
  C 133.74 353.99 134.27 351.97 135.24 348.96
  C 138.43 339.00 153.46 335.86 159.25 345.39
  C 159.42 345.67 159.33 346.03 159.06 346.21
  L 156.45 347.95
  C 156.28 348.07 156.04 348.04 155.90 347.89
  Z"
/>
<path fill="#eeeae8" d="
  M 197.74 364.41
  C 197.46 364.13 197.37 363.71 197.52 363.35
  L 198.61 360.59
  C 198.74 360.25 199.18 360.16 199.43 360.42
  C 201.97 363.03 204.87 364.22 208.14 364.01
  C 211.09 363.82 212.47 362.31 212.28 359.49
  C 212.25 359.14 212.09 358.81 211.82 358.57
  C 207.42 354.74 199.46 355.69 198.17 349.37
  C 197.52 346.22 198.14 343.80 200.01 342.09
  C 204.51 337.98 211.43 339.30 215.68 343.23
  C 215.90 343.44 215.97 343.77 215.86 344.06
  L 214.85 346.64
  C 214.56 347.37 213.59 347.50 213.12 346.87
  C 211.77 345.06 209.82 344.18 207.27 344.22
  C 204.98 344.25 202.49 344.28 202.32 346.82
  C 202.18 348.74 203.80 350.01 205.48 350.56
  C 211.40 352.51 219.72 354.79 216.40 363.42
  C 215.25 366.40 212.69 367.98 208.71 368.17
  C 204.07 368.38 200.41 367.13 197.74 364.41
  Z"
/>
<path fill="#eeeae8" d="
  M 346.8612 339.6935
  C 354.57 338.32 361.95 343.56 363.3503 351.4033
  C 364.75 359.24 359.63 366.71 351.9188 368.0865
  C 344.21 369.46 336.83 364.22 335.4297 356.3767
  C 334.03 348.54 339.15 341.07 346.8612 339.6935
  Z
  M 358.10 352.24
  C 358.10 347.85 354.55 344.30 350.16 344.30
  L 348.70 344.30
  C 344.31 344.30 340.76 347.85 340.76 352.24
  L 340.76 355.78
  C 340.76 360.17 344.31 363.72 348.70 363.72
  L 350.16 363.72
  C 354.55 363.72 358.10 360.17 358.10 355.78
  L 358.10 352.24
  Z"
/>
<path fill="#eeeae8" d="
  M 257.93 339.86
  C 258.74 339.87 259.30 339.87 259.61 339.89
  C 260.01 339.90 260.35 340.15 260.50 340.51
  L 270.68 366.79
  C 270.88 367.32 270.49 367.89 269.93 367.89
  L 266.99 367.89
  C 266.39 367.89 265.86 367.52 265.64 366.96
  L 263.63 361.77
  C 263.37 361.10 262.73 360.66 262.01 360.65
  C 261.38 360.65 260.00 360.64 257.85 360.64
  C 255.70 360.63 254.31 360.62 253.68 360.62
  C 252.97 360.62 252.32 361.06 252.06 361.72
  L 250.01 366.90
  C 249.79 367.46 249.25 367.82 248.65 367.82
  L 245.71 367.79
  C 245.15 367.79 244.76 367.22 244.97 366.69
  L 255.36 340.49
  C 255.51 340.13 255.86 339.88 256.25 339.87
  C 256.56 339.86 257.12 339.86 257.93 339.86
  Z
  M 258.42 347.06
  C 258.26 346.54 257.52 346.56 257.38 347.08
  C 256.70 349.52 255.83 351.97 254.78 354.42
  C 254.55 354.94 254.51 355.59 254.65 356.37
  C 254.69 356.59 254.89 356.74 255.11 356.73
  L 260.92 356.49
  C 261.14 356.49 261.30 356.26 261.23 356.05
  L 258.42 347.06
  Z"
/>
<path fill="#eeeae8" d="
  M 232.98 339.95
  C 236.51 339.92 239.90 339.91 243.14 339.91
  C 243.54 339.91 243.86 340.23 243.86 340.63
  L 243.86 343.65
  C 243.86 344.04 243.54 344.36 243.14 344.36
  L 236.29 344.36
  C 235.88 344.36 235.55 344.70 235.55 345.11
  L 235.55 367.29
  C 235.55 367.57 235.33 367.79 235.04 367.80
  C 233.95 367.82 233.30 367.83 233.10 367.83
  C 232.90 367.83 232.25 367.83 231.15 367.81
  C 230.87 367.81 230.65 367.59 230.64 367.31
  L 230.46 345.13
  C 230.46 344.72 230.12 344.38 229.71 344.39
  L 222.86 344.44
  C 222.47 344.45 222.14 344.13 222.14 343.74
  L 222.11 340.72
  C 222.11 340.32 222.43 340.00 222.83 340.00
  C 226.07 339.97 229.46 339.95 232.98 339.95
  Z"
/>
<path fill="#eeeae8" d="
  M 283.90 348.66
  C 283.68 348.35 283.19 348.52 283.19 348.90
  L 283.19 367.31
  C 283.19 367.60 282.96 367.83 282.67 367.83
  L 278.89 367.83
  C 278.60 367.83 278.36 367.59 278.36 367.29
  L 278.36 340.52
  C 278.36 340.18 278.64 339.90 278.98 339.90
  L 282.31 339.90
  C 282.67 339.90 283.02 340.07 283.23 340.36
  C 291.02 350.72 295.47 356.70 296.59 358.31
  C 296.78 358.58 296.99 358.72 297.23 358.71
  C 297.46 358.70 297.58 358.53 297.58 358.18
  C 297.56 351.27 297.55 345.36 297.56 340.46
  C 297.56 340.16 297.80 339.92 298.10 339.92
  L 301.91 339.92
  C 302.20 339.92 302.44 340.16 302.44 340.45
  L 302.44 367.25
  C 302.44 367.57 302.18 367.83 301.86 367.83
  L 298.82 367.83
  C 298.35 367.83 297.91 367.61 297.63 367.23
  L 283.90 348.66
  Z"
/>
<path fill="#eeeae8" d="
  M 322.78 344.38
  L 310.33 344.38
  C 310.10 344.38 309.92 344.20 309.92 343.97
  L 309.92 340.36
  C 309.92 340.13 310.10 339.95 310.33 339.95
  L 331.09 339.95
  C 331.41 339.95 331.61 340.30 331.44 340.58
  L 317.49 362.90
  C 317.32 363.18 317.52 363.53 317.84 363.53
  L 330.95 363.53
  C 331.18 363.53 331.36 363.71 331.36 363.94
  L 331.36 367.41
  C 331.36 367.64 331.18 367.82 330.95 367.82
  L 309.62 367.82
  C 309.30 367.82 309.10 367.47 309.27 367.19
  L 323.13 345.01
  C 323.30 344.73 323.10 344.38 322.78 344.38
  Z"
/>
<path fill="#eeeae8" d="
  M 196.24 398.83
  C 195.93 399.06 195.62 399.14 195.31 399.06
  C 195.04 398.99 194.79 398.80 194.57 398.49
  C 194.23 398.01 193.99 397.72 193.84 397.61
  C 193.57 397.40 193.22 397.31 192.89 397.39
  L 189.47 398.11
  C 189.36 398.14 189.26 398.14 189.15 398.13
  C 186.04 397.88 183.70 396.45 182.13 393.84
  C 180.01 390.29 181.25 385.54 184.32 383.20
  C 187.39 380.86 192.30 380.92 195.16 383.91
  C 197.26 386.10 198.02 388.74 197.44 391.81
  C 197.43 391.91 197.39 392.02 197.34 392.11
  L 195.74 395.22
  C 195.58 395.52 195.56 395.88 195.70 396.19
  C 195.76 396.36 195.98 396.67 196.35 397.13
  C 196.59 397.42 196.71 397.71 196.71 397.99
  C 196.70 398.32 196.55 398.60 196.24 398.83
  Z
  M 193.49 393.29
  C 194.60 391.28 194.75 389.10 193.93 386.75
  C 193.82 386.42 193.63 386.12 193.37 385.88
  C 189.60 382.31 184.87 383.94 184.34 389.11
  C 183.94 393.00 186.23 396.23 190.35 395.49
  C 190.66 395.44 190.84 395.12 190.73 394.83
  C 190.42 394.00 189.90 393.49 189.18 393.29
  C 188.71 393.16 188.46 392.66 188.63 392.22
  L 188.79 391.80
  C 189.01 391.21 189.69 390.95 190.25 391.23
  C 191.23 391.72 192.01 392.41 192.58 393.32
  C 192.80 393.66 193.30 393.64 193.49 393.29
  Z"
/>
<path fill="#eeeae8" d="
  M 250.12 385.71
  C 249.82 385.54 249.21 385.13 248.29 384.48
  C 247.06 383.60 245.39 383.74 244.33 384.80
  C 243.99 385.15 243.96 385.88 244.24 386.99
  C 244.32 387.32 244.59 387.56 244.92 387.61
  C 247.50 388.00 251.29 389.69 252.34 392.55
  C 252.44 392.83 252.47 393.12 252.43 393.42
  C 252.06 395.99 250.60 397.45 248.05 397.82
  C 246.10 398.10 241.88 397.76 241.20 395.46
  C 240.85 394.28 242.23 393.34 243.11 394.17
  C 244.55 395.53 249.03 397.14 249.42 393.70
  C 249.52 392.86 248.97 392.06 248.12 391.79
  C 247.11 391.46 245.74 390.94 244.01 390.21
  C 242.00 389.38 241.11 387.83 241.33 385.56
  C 241.78 380.89 247.37 381.08 250.68 382.59
  C 251.16 382.81 251.44 383.32 251.37 383.85
  L 251.19 385.18
  C 251.12 385.68 250.57 385.96 250.12 385.71
  Z"
/>
<path fill="#eeeae8" d="
  M 145.92 381.69
  C 146.38 381.69 146.78 381.79 147.11 381.97
  C 147.31 382.08 147.47 382.26 147.55 382.47
  L 153.09 396.77
  C 153.28 397.28 152.91 397.82 152.37 397.82
  L 151.51 397.82
  C 150.90 397.82 150.34 397.44 150.12 396.86
  L 149.10 394.23
  C 148.99 393.93 148.70 393.73 148.38 393.73
  C 148.08 393.72 147.26 393.72 145.92 393.72
  C 144.59 393.73 143.77 393.73 143.47 393.73
  C 143.15 393.73 142.86 393.93 142.75 394.23
  L 141.73 396.87
  C 141.51 397.44 140.96 397.83 140.34 397.83
  L 139.48 397.83
  C 138.94 397.83 138.57 397.29 138.76 396.78
  L 144.28 382.47
  C 144.37 382.26 144.52 382.08 144.72 381.97
  C 145.05 381.79 145.45 381.69 145.92 381.69
  Z
  M 147.81 390.77
  L 146.35 386.11
  C 146.21 385.67 145.57 385.72 145.50 386.18
  C 145.24 387.91 144.67 389.47 143.79 390.87
  C 143.65 391.09 143.79 391.39 144.05 391.41
  C 145.09 391.52 146.22 391.50 147.43 391.36
  C 147.71 391.32 147.89 391.04 147.81 390.77
  Z"
/>
<path fill="#eeeae8" d="
  M 162.71 389.79
  C 162.70 390.74 162.79 391.66 162.98 392.56
  C 163.06 392.95 163.24 393.32 163.51 393.61
  C 166.06 396.39 168.71 396.49 171.46 393.90
  C 171.90 393.49 172.57 393.47 173.03 393.84
  C 173.50 394.22 173.61 394.88 173.30 395.39
  C 172.63 396.48 171.86 397.17 170.99 397.44
  C 165.18 399.26 159.40 396.41 159.47 389.76
  C 159.53 383.11 165.36 380.37 171.13 382.30
  C 172.00 382.59 172.76 383.29 173.40 384.39
  C 173.71 384.91 173.58 385.57 173.11 385.94
  C 172.64 386.30 171.96 386.27 171.54 385.85
  C 168.84 383.21 166.19 383.26 163.58 385.99
  C 163.31 386.28 163.12 386.64 163.03 387.03
  C 162.83 387.92 162.72 388.84 162.71 389.79
  Z"
/>
<path fill="#eeeae8" d="
  M 212.62 398.19
  C 204.51 398.19 205.93 389.04 205.96 382.99
  C 205.97 382.36 206.47 381.86 207.09 381.86
  L 207.96 381.86
  C 208.55 381.86 209.03 382.35 209.02 382.94
  C 208.92 388.62 208.97 391.93 209.18 392.87
  C 209.59 394.70 210.74 395.62 212.62 395.62
  C 214.50 395.62 215.65 394.70 216.05 392.86
  C 216.26 391.93 216.31 388.62 216.21 382.94
  C 216.21 382.34 216.68 381.86 217.27 381.86
  L 218.14 381.86
  C 218.76 381.86 219.26 382.36 219.27 382.98
  C 219.31 389.04 220.73 398.19 212.62 398.19
  Z"
/>
<rect fill="#eeeae8" x="-1.38" y="-7.98" transform="translate(229.93,389.84) rotate(0.2)" width="2.76" height="15.96" rx="0.67"/>
<rect fill="#eeeae8" x="-1.46" y="-7.96" transform="translate(262.41,389.81) rotate(-0.1)" width="2.92" height="15.92" rx="0.85"/>
<rect fill="#eeeae8" x="294.42" y="381.88" width="3.10" height="15.94" rx="0.71"/>
<path fill="#eeeae8" d="
  M 314.3338 381.5208
  C 318.81 381.46 322.50 385.13 322.5592 389.7268
  C 322.62 394.32 319.04 398.10 314.5662 398.1592
  C 310.09 398.22 306.40 394.55 306.3408 389.9532
  C 306.28 385.36 309.86 381.58 314.3338 381.5208
  Z
  M 314.7387 383.8956
  C 311.90 383.77 309.48 386.32 309.3349 389.5954
  C 309.19 392.87 311.38 395.62 314.2213 395.7444
  C 317.06 395.87 319.48 393.32 319.6251 390.0446
  C 319.77 386.77 317.58 384.02 314.7387 383.8956
  Z"
/>
<rect fill="#eeeae8" x="-1.54" y="-7.95" transform="translate(356.37,389.82) rotate(0.2)" width="3.08" height="15.90" rx="0.77"/>
<path fill="#eeeae8" d="
  M 274.22 381.97
  L 285.59 381.97
  C 285.96 381.97 286.18 382.39 285.96 382.69
  L 277.46 394.87
  C 277.24 395.17 277.46 395.59 277.83 395.59
  L 285.33 395.59
  C 285.58 395.59 285.79 395.80 285.79 396.05
  L 285.79 397.31
  C 285.79 397.56 285.58 397.77 285.33 397.77
  L 273.10 397.77
  C 272.73 397.77 272.51 397.35 272.73 397.05
  L 281.27 384.81
  C 281.49 384.51 281.27 384.09 280.90 384.09
  L 274.06 384.09
  C 273.78 384.09 273.56 383.84 273.60 383.57
  L 273.77 382.37
  C 273.80 382.14 273.99 381.97 274.22 381.97
  Z"
/>
<path fill="#eeeae8" d="
  M 339.15 389.10
  C 339.85 390.01 340.74 391.16 341.81 392.55
  C 341.99 392.79 342.37 392.66 342.37 392.36
  L 342.37 382.77
  C 342.37 382.28 342.77 381.88 343.27 381.88
  L 344.00 381.88
  C 344.54 381.88 344.97 382.31 344.97 382.84
  L 344.97 396.37
  C 344.97 397.90 343.01 398.54 342.11 397.31
  C 340.37 394.94 338.69 392.70 337.08 390.59
  C 336.38 389.68 335.50 388.53 334.43 387.14
  C 334.24 386.90 333.87 387.03 333.87 387.33
  L 333.87 396.92
  C 333.87 397.41 333.46 397.81 332.97 397.81
  L 332.24 397.81
  C 331.70 397.81 331.27 397.38 331.27 396.85
  L 331.27 383.32
  C 331.27 381.79 333.22 381.15 334.13 382.38
  C 335.87 384.75 337.54 386.99 339.15 389.10
  Z"
/>
</svg>
